<?xml version="1.0" encoding="iso-8859-1"?>
<!-- Uploaded to: SVG Repo, www.svgrepo.com, Generator: SVG Repo Mixer Tools -->
<svg height="800px" width="800px" version="1.1" id="Layer_1" xmlns="http://www.w3.org/2000/svg" xmlns:xlink="http://www.w3.org/1999/xlink" 
	 viewBox="0 0 512.001 512.001" xml:space="preserve">
<path style="fill:#FEE187;" d="M355.281,286.282v18.779L163.161,497.167h-0.712V363.46L316.73,209.164
	c3.649,2.729,7.09,5.726,10.309,8.944C344.483,235.552,355.281,259.656,355.281,286.282z"/>
<path style="fill:#FFC61B;" d="M365.783,315.536l52.393-52.391c5.792-5.792,5.794-15.185,0-20.979
	c-5.794-5.789-15.185-5.791-20.977,0l-28.217,28.217c-3.37-23.68-14.237-45.547-31.452-62.764c-1.792-1.792-3.647-3.518-5.548-5.177
	c-0.083-0.073-0.163-0.15-0.248-0.222c-0.22-0.19-0.445-0.369-0.665-0.556c-0.782-0.667-1.563-1.332-2.358-1.973
	c-0.23-0.185-0.467-0.359-0.699-0.543c-0.785-0.622-1.571-1.243-2.364-1.838c-0.003-0.001-0.006-0.004-0.009-0.006
	c-0.007-0.006-0.015-0.012-0.022-0.018c-0.009-0.007-0.019-0.013-0.03-0.019c-7.506-5.64-15.572-10.233-24.048-13.764
	c23.797-14.465,39.725-40.64,39.725-70.465c0-12.43-2.759-24.53-8.051-35.569l15.053-15.053c5.792-5.792,5.792-15.185,0-20.979
	c-5.792-5.791-15.185-5.791-20.979,0l-21.665,21.665c-0.136,0.136-0.255,0.285-0.384,0.426c-5.824,4.803-7.156,13.337-2.848,19.725
	l0.15,0.218c5.927,8.734,9.059,18.957,9.059,29.566c0,29.078-23.656,52.734-52.732,52.734c-29.078,0-52.732-23.656-52.732-52.734
	s23.656-52.732,52.732-52.732c8.192,0,14.833-6.642,14.833-14.833v-30.64C273.698,6.642,267.057,0,258.865,0
	s-14.833,6.642-14.833,14.833v17.17c-16.014,2.925-30.417,10.486-41.776,21.247l-11.812-11.812c-5.794-5.789-15.185-5.791-20.977,0
	c-5.792,5.792-5.794,15.185,0,20.979l15.074,15.075c-5.171,10.769-8.074,22.825-8.074,35.548c0,29.848,15.953,56.039,39.78,70.497
	c-16.453,6.85-30.91,17.545-42.266,30.951L118.395,47.248c-2.584-7.773-10.978-11.978-18.755-9.397
	c-7.774,2.582-11.982,10.98-9.398,18.755l63.882,192.208c-4.204,11.714-6.509,24.325-6.509,37.469v210.885
	c0,8.191,6.641,14.833,14.833,14.833h0.712h192.121c8.192,0,14.833-6.642,14.833-14.833V391.106c0-8.191-6.641-14.833-14.833-14.833
	c-8.192,0-14.833,6.642-14.833,14.833v91.229H198.973l166.796-166.782C365.774,315.545,365.779,315.541,365.783,315.536z
	 M340.448,298.916l-3.072,3.072c-0.001,0.001-0.003,0.003-0.004,0.004L177.282,462.07v-92.466l140.109-140.122
	c0.353,0.363,0.702,0.73,1.047,1.099c0.429,0.457,0.859,0.912,1.276,1.378c0.476,0.533,0.936,1.075,1.397,1.618
	c0.403,0.475,0.81,0.946,1.202,1.43c0.446,0.55,0.875,1.112,1.307,1.672c0.38,0.494,0.764,0.983,1.13,1.485
	c0.415,0.567,0.813,1.144,1.212,1.719c0.355,0.51,0.714,1.018,1.056,1.534c0.386,0.584,0.754,1.178,1.123,1.771
	c0.328,0.525,0.662,1.046,0.978,1.577c0.355,0.598,0.69,1.206,1.028,1.813c0.303,0.541,0.613,1.08,0.902,1.627
	c0.325,0.613,0.627,1.236,0.936,1.857c0.274,0.553,0.558,1.102,0.819,1.661c0.295,0.63,0.568,1.271,0.847,1.909
	c0.246,0.562,0.501,1.121,0.734,1.69c0.266,0.647,0.506,1.302,0.755,1.957c0.217,0.571,0.444,1.139,0.648,1.715
	c0.234,0.665,0.445,1.336,0.662,2.007c0.187,0.577,0.386,1.151,0.561,1.734c0.205,0.681,0.383,1.371,0.568,2.057
	c0.157,0.581,0.328,1.158,0.472,1.743c0.175,0.705,0.32,1.418,0.476,2.129c0.126,0.577,0.266,1.148,0.38,1.73
	c0.144,0.736,0.26,1.48,0.384,2.221c0.095,0.564,0.203,1.123,0.286,1.688c0.116,0.786,0.199,1.578,0.291,2.369
	c0.062,0.528,0.139,1.053,0.191,1.584c0.085,0.878,0.136,1.764,0.194,2.648c0.03,0.449,0.076,0.897,0.096,1.348
	c0.065,1.338,0.098,2.682,0.098,4.03v12.636H340.448z M258.865,204.699c11.907,0,23.404,2.529,33.967,7.385l-115.55,115.562v-41.364
	C177.282,241.297,213.88,204.699,258.865,204.699z"/>
</svg>